<svg xmlns="http://www.w3.org/2000/svg" fill="none" viewBox="0 0 512 512">
  <circle cx="256" cy="256" r="256" fill="var(--logo-bg-color)"/>
  <path fill="url(#a)" fill-rule="evenodd" d="M280 1.101A259.097 259.097 0 0 0 256.101 0H256C169.734.033 93.448 42.753 47.116 108.183c-.284.401-.566.802-.848 1.205 40.039-29.292 93.487-46.514 151.717-45.382a255.982 255.982 0 0 1 16.976.846c113.927 9.15 202.472 86.703 206.023 178.833.327 4.088.494 8.196.494 12.315a165.478 165.478 0 0 1-163.019 165.46c-22.264 4.714-45.89 6.657-70.263 5.379-30.288-1.587-58.911-8-84.779-18.256l-28.436 28.436a255.997 255.997 0 0 0 362.038 0 255.933 255.933 0 0 0 47.975-66.573l.01-.02a256.12 256.12 0 0 0 16.934-43.361 256.012 256.012 0 0 0 9.849-60.612l.02-.506.03-.829a258.91 258.91 0 0 0 .162-8.444l.001-.199a255.302 255.302 0 0 0-.56-17.394A256.006 256.006 0 0 0 376.678 30.228 256.002 256.002 0 0 0 280 1.128V1.1Z" clip-rule="evenodd"/>
  <path fill="url(#b)" fill-rule="evenodd" d="M306.635 464.504C361.41 431.183 398 370.871 398 302c0-104.934-84.944-190-189.728-190C139.5 112 79.274 148.643 46 203.496 74.683 186.048 109.348 176 145.36 175c-35.679.991-70.037 10.862-98.563 28.014 26.447-17.519 60.263-28.608 97.407-29.906 87.572-3.058 160.484 49.471 162.854 117.326a96.701 96.701 0 0 1-.87 16.75 109.004 109.004 0 0 0 0 .003c-.082 1.723 0-.003 0-.003-1.158 24.416-10.538 47.572-27.887 64.947C266.552 383.896 264 387.166 240 403s-53.954 19.31-87.215 15.834c-19.413.678-38.105-1.376-55.468-5.722L74.112 436.35C109.693 471.982 157.951 492 208.27 492c34.984 0 68.972-9.676 98.396-27.548l-.031.052Z" clip-rule="evenodd"/>
  <circle cx="166" cy="348" r="128" fill="url(#c)"/>
  <path fill="var(--logo-color-4)" fill-rule="evenodd" d="M220.597 294.323c-5.005.089-12.684 2.758-49.64 18.126-12.943 5.383-38.811 16.523-77.604 33.422-6.3 2.504-9.6 4.955-9.9 7.35-.577 4.6 6.047 6.032 14.38 8.741 6.795 2.208 15.934 4.791 20.686 4.894 4.31.093 9.12-1.684 14.431-5.33 36.246-24.462 54.956-36.826 56.13-37.093.829-.188 1.978-.425 2.756.267.778.691.701 2.001.619 2.352-.659 2.809-34.708 33.773-36.667 35.808-7.488 7.775-16.005 12.533-2.867 21.189 11.369 7.491 17.986 12.269 29.698 19.945 7.484 4.905 13.352 10.722 21.08 10.011 3.556-.327 7.229-3.67 9.094-13.64 4.409-23.563 13.074-74.616 15.077-95.654.175-1.843-.045-4.202-.223-5.238-.177-1.035-.547-2.51-1.894-3.603-1.594-1.293-4.055-1.566-5.156-1.547Z" clip-rule="evenodd"/>
  <defs>
    <linearGradient id="a" x1="75" x2="288" y1="437" y2="16" gradientUnits="userSpaceOnUse">
      <stop stop-color="var(--logo-color-1)"/>
      <stop offset="1" stop-color="var(--logo-top-color)"/>
    </linearGradient>
    <linearGradient id="b" x1="75" x2="275" y1="437" y2="130" gradientUnits="userSpaceOnUse">
      <stop stop-color="var(--logo-color-2)"/>
      <stop offset="1" stop-color="var(--logo-top-color)"/>
    </linearGradient>
    <linearGradient id="c" x1="75" x2="256" y1="437" y2="256" gradientUnits="userSpaceOnUse">
      <stop stop-color="var(--logo-color-3)"/>
      <stop offset="1" stop-color="var(--logo-top-color)"/>
    </linearGradient>
  </defs>
</svg>
