<svg xmlns="http://www.w3.org/2000/svg" fill="none" viewBox="0 0 384 384">
  <path fill="#fff" fill-rule="evenodd" d="M286.118 96.2H78c-7.732 0-14 6.269-14 14.001v4c0 7.732 6.268 14 14 14h242c35.346 0 64 28.654 64 64v32c0 35.346-28.654 64-64 64H78c-7.732 0-14 6.268-14 14v4c0 7.732 6.268 14 14 14h253.487c29.002 0 52.513 23.511 52.513 52.513 0 6.344-5.143 11.487-11.487 11.487H64c-35.346 0-64-28.654-64-64v-32c0-35.346 28.654-64 64-64h242c7.732 0 14-6.268 14-14v-4c0-7.732-6.268-14-14-14H64c-35.346 0-64-28.654-64-64v-32c0-35.346 28.654-64 64-64h221.882l26.101-26.1c5.467-5.468 14.331-5.468 19.799 0l48.083 48.083c5.467 5.467 5.467 14.331 0 19.799l-48.083 48.083c-5.468 5.467-14.332 5.467-19.799 0l-25.865-25.865Zm32.685-29.41c.167-.346.517-.566.902-.566h41.433c1.075 0 1.393 1.464.415 1.91l-53.048 24.17c-.85.387-1.72-.501-1.315-1.344l11.613-24.17ZM308.505 36.61c-.85-.388-1.72.5-1.315 1.343l11.613 24.17a1 1 0 0 0 .902.566h41.433c1.075 0 1.393-1.464.415-1.91l-53.048-24.17Z"/>
  <path fill="#000" d="M318.802 66.79a1 1 0 0 1 .902-.566h41.433c1.075 0 1.393 1.464.415 1.91l-53.048 24.17c-.851.387-1.721-.501-1.316-1.344l11.614-24.17ZM307.188 37.952c-.405-.843.465-1.73 1.316-1.343l53.048 24.17c.978.445.66 1.91-.415 1.91h-41.433a1 1 0 0 1-.902-.568l-11.614-24.17Z"/>
</svg>
