<svg xmlns="http://www.w3.org/2000/svg" height="20" viewBox="0 -960 960 960" width="20"><path d="M216-144q-29.7 0-50.85-21.15Q144-186.3 144-216v-528q0-29.7 21.15-50.85Q186.3-816 216-816h528.247q7.547 0 14.15 2Q765-812 771-810l-66 66H216v528h528v-233l72-72v305q0 29.7-21.15 50.85Q773.7-144 744-144H216Zm265-246 308-307q11-11 25.182-11 14.182 0 24.818 11 11 11 11 25.5t-10.864 25.395l-332.272 333.21Q496-302 481.5-302.5T456-314L289.757-480.243Q279-491 279-505q0-14 11-25t25.5-11q14.5 0 25.356 10.856L481-390Z"/></svg>