<svg xmlns="http://www.w3.org/2000/svg" viewBox="0 -960 960 960"><path d="M240-160q-33 0-56.5-23.5T160-240q0-33 23.5-56.5T240-320q33 0 56.5 23.5T320-240q0 33-23.5 56.5T240-160Zm0-240q-33 0-56.5-23.5T160-480q0-33 23.5-56.5T240-560q33 0 56.5 23.5T320-480q0 33-23.5 56.5T240-400Zm0-240q-33 0-56.5-23.5T160-720q0-33 23.5-56.5T240-800q33 0 56.5 23.5T320-720q0 33-23.5 56.5T240-640Zm240 240q-33 0-56.5-23.5T400-480q0-33 23.5-56.5T480-560q33 0 56.5 23.5T560-480l-80 80Zm0-240q-33 0-56.5-23.5T400-720q0-33 23.5-56.5T480-800q33 0 56.5 23.5T560-720q0 33-23.5 56.5T480-640Zm-20 480q-8 0-14-6t-6-14v-57q0-2 6-14l206-206 85 85-206 206q-2 2-14 6h-57Zm260-480q-33 0-56.5-23.5T640-720q0-33 23.5-56.5T720-800q33 0 56.5 23.5T800-720q0 33-23.5 56.5T720-640Zm45 240-85-85 29-29q12-12 28.5-12t27.5 12l29 29q12 11 12 27.5T794-429l-29 29Z"/></svg>
