<svg xmlns="http://www.w3.org/2000/svg" height="20" viewBox="0 -960 960 960" width="20"><path d="M168-264v-4.5 4.5-336 336Zm0 72q-29 0-50.5-21.162T96-264.04v-432.243Q96-726 117.096-747q21.095-21 50.719-21h185.822Q368-768 381-763t24 16l75 75h312q29.7 0 50.85 21.15Q864-629.7 864-600v77q-17-9-34.5-14.5t-37.5-9.53V-600H168v336h313q1.8 18.934 5.4 36.967Q490-209 498-192H168Zm576.212-24Q774-216 795-237.212q21-21.213 21-51Q816-318 794.788-339q-21.213-21-51-21Q714-360 693-338.788q-21 21.213-21 51Q672-258 693.212-237q21.213 21 51 21ZM736-96q-11.053 0-19.342-7.031Q708.368-110.062 706-121l-7-30.545Q685-157 672.5-163.5T649-180l-32 10q-11 3-20.375-1.048Q587.25-175.095 582-184l-8-13q-5-9-4-19.5t9-18.5l24-23q-3-14-3-29t3-29l-23-22q-8-8-9.5-18t3.5-20l8-13q5-10 15-14t21-1l30 9q11-11 24-18t27-11l7-32q2.447-10.839 11.013-17.419Q725.579-480 737-480h14q11 0 20 6.5t11 17.5l7 32q14 5 27.5 11.5T840-395l31-9q11-3 20.375 1.286Q900.75-398.429 906-389l8 13q5 9 3.5 19.5T908-338l-22 21q3 14 2.5 29.5T885-258l23 22q8 8 9.5 18.5T914-198l-8 13q-5.419 8.905-14.71 12.952Q882-168 871-171l-32-9q-11 10-23.5 16.5T789-152l-8 32q-2.368 10.839-10.658 17.419Q762.053-96 751-96h-15Z"/></svg>