<svg xmlns="http://www.w3.org/2000/svg" height="20" viewBox="0 -960 960 960" width="20"><path d="m846-216-54-54v-330H462l-96-96-72-72h60q14.222 0 27.111 5Q394-758 405-747l75 75h312q29.7 0 50.85 21.15Q864-629.7 864-600v336q0 13.933-5 25.967Q854-226 846-216Zm-678 24q-29 0-50.5-21.5T96-264v-432q0-29.7 21.5-50.85Q139-768 168-768h24l72 72h-96v432h427L81-777q-11-11-11-25t11-25q11-11 25.5-11t25.5 11l695.658 695.658Q839-120 839-106q0 14-11 25.478Q817-70 803-70t-25-11L667-192H168Zm210-288Zm201-3Z"/></svg>