<svg viewBox="0 0 24 24" fill="none" xmlns="http://www.w3.org/2000/svg">
  <path fill-rule="evenodd" clip-rule="evenodd" d="M5.76043 12.4792C8.94182 12.4792 11.5209 15.0582 11.5209 18.2396C11.5209 21.421 8.94182 24 5.76043 24C2.57903 24 0 21.421 0 18.2396C0 15.0582 2.57903 12.4792 5.76043 12.4792ZM8.21753 15.8239C7.99228 15.8279 7.6467 15.9481 5.98358 16.6397C5.40109 16.8819 4.23694 17.3833 2.49112 18.1438C2.20762 18.2565 2.05912 18.3667 2.0456 18.4746C2.01964 18.6816 2.31772 18.746 2.69276 18.8679C2.99853 18.9673 3.40985 19.0835 3.62367 19.0881C3.81764 19.0923 4.03412 19.0124 4.27312 18.8483C5.9043 17.7474 6.74632 17.191 6.79918 17.179C6.83648 17.1705 6.88816 17.1599 6.92318 17.191C6.95819 17.2221 6.95475 17.281 6.95104 17.2969C6.92138 17.4233 5.38908 18.8167 5.3009 18.9083C4.96394 19.2582 4.58064 19.4723 5.17191 19.8619C5.68353 20.199 5.9813 20.414 6.50838 20.7595C6.84522 20.9802 7.1093 21.242 7.45708 21.21C7.6171 21.1953 7.7824 21.0449 7.86635 20.5962C8.06474 19.5358 8.45471 17.2382 8.54484 16.2914C8.55273 16.2085 8.5428 16.1023 8.53482 16.0557C8.52685 16.0091 8.51018 15.9427 8.44959 15.8936C8.37784 15.8354 8.26707 15.8231 8.21753 15.8239Z"/>
  <path d="M17.6653 18.2396C17.8067 18.2396 17.9216 18.1249 17.9186 17.9836C17.8868 16.4738 17.5741 14.9823 16.9956 13.5858C16.3845 12.1104 15.4887 10.7698 14.3595 9.64052C13.2302 8.51128 11.8896 7.61551 10.4142 7.00437C9.01766 6.4259 7.52621 6.11316 6.01644 6.08137C5.87507 6.0784 5.76042 6.1933 5.76042 6.3347V9.61686C5.76042 9.75825 5.87508 9.87247 6.01641 9.87679C7.02785 9.90775 8.02603 10.122 8.96222 10.5098C9.97732 10.9302 10.8997 11.5465 11.6766 12.3234C12.4535 13.1003 13.0698 14.0227 13.4902 15.0378C13.878 15.974 14.0922 16.9721 14.1232 17.9836C14.1275 18.1249 14.2417 18.2396 14.3831 18.2396H17.6653Z"/>
  <path d="M23.7458 18.2396C23.8871 18.2396 24.002 18.1249 24 17.9836C23.9676 15.6752 23.4973 13.3932 22.6132 11.2589C21.6965 9.04577 20.3529 7.03486 18.659 5.341C16.9651 3.64713 14.9542 2.30348 12.7411 1.38677C10.6068 0.502725 8.32478 0.0324241 6.01644 2.53415e-05C5.87506 -0.00195902 5.76042 0.112852 5.76042 0.254248L5.76042 3.67413C5.76042 3.81552 5.87507 3.92991 6.01644 3.93244C7.8084 3.9645 9.57919 4.33295 11.2364 5.01939C12.9725 5.7385 14.55 6.79253 15.8787 8.12128C17.2075 9.45003 18.2615 11.0275 18.9806 12.7636C19.6671 14.4208 20.0355 16.1916 20.0676 17.9836C20.0701 18.1249 20.1845 18.2396 20.3259 18.2396H23.7458Z"/>
</svg>
