<svg xmlns="http://www.w3.org/2000/svg" fill="none" viewBox="0 0 24 24">
  <path fill-rule="evenodd" d="M2.275 4.389C2.088 5.229 2 6.373 2 7.968v8.064c0 1.595.088 2.74.275 3.58.181.816.428 1.216.663 1.45.234.235.634.482 1.45.663.84.187 1.985.275 3.58.275h8.064c1.595 0 2.74-.088 3.58-.275.816-.181 1.216-.428 1.45-.663.235-.234.482-.634.663-1.45.187-.84.275-1.985.275-3.58V7.968c0-1.595-.088-2.74-.275-3.58-.181-.816-.428-1.216-.663-1.45-.234-.235-.634-.482-1.45-.663-.84-.187-1.985-.275-3.58-.275H7.968c-1.595 0-2.74.088-3.58.275-.816.181-1.216.428-1.45.663-.235.234-.482.634-.663 1.45ZM7.968 0C1.406 0 0 1.406 0 7.968v8.064C0 22.594 1.406 24 7.968 24h8.064C22.594 24 24 22.594 24 16.032V7.968C24 1.406 22.594 0 16.032 0H7.968Z" clip-rule="evenodd"/>
  <path fill-rule="evenodd" d="M8.88 12.24a2.88 2.88 0 1 1 0 5.76 2.88 2.88 0 0 1 0-5.76Zm1.229 1.672c-.113.002-.286.062-1.117.408-.291.121-.874.372-1.746.752-.142.056-.216.111-.223.165-.013.104.136.136.323.197.153.05.359.108.466.11a.568.568 0 0 0 .325-.12c.815-.55 1.236-.829 1.263-.835.018-.004.044-.01.062.006.017.016.015.045.014.053-.015.064-.781.76-.826.806-.168.175-.36.282-.064.477.256.168.405.276.668.449.169.11.3.241.475.225.08-.007.162-.083.204-.307.1-.53.294-1.679.34-2.152a.524.524 0 0 0-.006-.118.126.126 0 0 0-.042-.081.197.197 0 0 0-.116-.035Z" clip-rule="evenodd"/>
  <path d="M14.833 15.12c.07 0 .128-.057.126-.128A6.081 6.081 0 0 0 9.01 9.04a.126.126 0 0 0-.129.126v1.641c0 .071.058.128.128.13a4.184 4.184 0 0 1 4.054 4.054c.002.07.059.128.13.128h1.64Z"/>
  <path d="M17.873 15.12c.07 0 .128-.057.127-.128A9.12 9.12 0 0 0 9.008 6a.127.127 0 0 0-.128.127v1.71c0 .07.058.128.128.13a7.155 7.155 0 0 1 7.026 7.025.13.13 0 0 0 .129.128h1.71Z"/>
</svg>
