<svg xmlns="http://www.w3.org/2000/svg" viewBox="0 0 280 280" fill="none"><path fill-rule="evenodd" clip-rule="evenodd" d="M219.643 61.5996H61.6016C55.416 61.5996 50.4016 66.614 50.4016 72.7997C50.4016 78.9849 55.416 83.9997 61.6016 83.9997H229.602C254.344 83.9997 274.402 104.057 274.402 128.8V151.2C274.402 175.942 254.344 196 229.602 196H61.6016C55.416 196 50.4016 201.014 50.4016 207.2C50.4016 213.385 55.416 218.4 61.6016 218.4H238.562C258.356 218.4 274.402 234.446 274.402 254.24C274.402 259.188 270.39 263.2 265.442 263.2H50.4016C25.6592 263.2 5.60156 243.142 5.60156 218.4V196C5.60156 171.257 25.6592 151.2 50.4016 151.2H218.402C224.588 151.2 229.602 146.185 229.602 140C229.602 133.814 224.588 128.8 218.402 128.8H50.4016C25.6592 128.8 5.60156 108.742 5.60156 83.9997V61.5996C5.60156 36.8572 25.6592 16.7996 50.4016 16.7996H219.96L233.04 3.71936C237.414 -0.654501 244.505 -0.654502 248.879 3.71936L276.598 31.4379C280.971 35.8118 280.971 42.9032 276.598 47.2771L248.879 74.9956C244.505 79.3692 237.414 79.3692 233.04 74.9956L219.643 61.5996ZM231.94 21.2186C231.377 20.9661 230.801 21.5445 231.07 22.0935L238.749 37.8369C238.858 38.0626 239.09 38.2061 239.344 38.2061H266.739C267.451 38.2061 267.661 37.2523 267.014 36.962L231.94 21.2186ZM239.344 40.5091C239.09 40.5091 238.858 40.6526 238.749 40.8784L231.07 56.6217C230.801 57.1707 231.377 57.7491 231.94 57.4967L267.014 41.7532C267.661 41.4629 267.451 40.5091 266.739 40.5091H239.344Z"/></svg>
