<svg xmlns="http://www.w3.org/2000/svg" fill="none" width="96" height="24">
  <path fill-rule="evenodd" d="M2.275 4.389C2.088 5.229 2 6.373 2 7.968v8.064c0 1.595.088 2.74.275 3.58.181.816.428 1.216.663 1.45.234.235.634.482 1.45.663.84.187 1.985.275 3.58.275h8.064c1.595 0 2.74-.088 3.58-.275.816-.181 1.216-.428 1.45-.663.235-.234.482-.634.663-1.45.187-.84.275-1.985.275-3.58V7.968c0-1.595-.088-2.74-.275-3.58-.181-.816-.428-1.216-.663-1.45-.234-.235-.634-.482-1.45-.663-.84-.187-1.985-.275-3.58-.275H7.968c-1.595 0-2.74.088-3.58.275-.816.181-1.216.428-1.45.663-.235.234-.482.634-.663 1.45ZM7.968 0C1.406 0 0 1.406 0 7.968v8.064C0 22.594 1.406 24 7.968 24h8.064C22.594 24 24 22.594 24 16.032V7.968C24 1.406 22.594 0 16.032 0H7.968Z" clip-rule="evenodd"/>
  <path fill-rule="evenodd" d="M8.88 12.24a2.88 2.88 0 1 1 0 5.76 2.88 2.88 0 0 1 0-5.76Zm1.229 1.672c-.113.002-.286.062-1.117.408-.291.121-.874.372-1.746.752-.142.056-.216.111-.223.165-.013.104.136.136.323.197.153.05.359.108.466.11a.568.568 0 0 0 .325-.12c.815-.55 1.236-.829 1.263-.835.018-.004.044-.01.062.006.017.016.015.045.014.053-.015.064-.781.76-.826.806-.168.175-.36.282-.064.477.256.168.405.276.668.449.169.11.3.241.475.225.08-.007.162-.083.204-.307.1-.53.294-1.679.34-2.152a.524.524 0 0 0-.006-.118.126.126 0 0 0-.042-.081.197.197 0 0 0-.116-.035Z" clip-rule="evenodd"/>
  <path d="M14.833 15.12c.07 0 .128-.057.126-.128A6.081 6.081 0 0 0 9.01 9.04a.126.126 0 0 0-.129.126v1.641c0 .071.058.128.128.13a4.184 4.184 0 0 1 4.054 4.054c.002.07.059.128.13.128h1.64Z"/>
  <path d="M17.873 15.12c.07 0 .128-.057.127-.128A9.12 9.12 0 0 0 9.008 6a.127.127 0 0 0-.128.127v1.71c0 .07.058.128.128.13a7.155 7.155 0 0 1 7.026 7.025.13.13 0 0 0 .129.128h1.71Z"/>
  <path d="M28.6364 8.13068V6.36364H37.9205V8.13068H34.3239V18H32.233V8.13068H28.6364ZM47.9501 10.0795C47.8554 9.77273 47.7247 9.49811 47.558 9.25568C47.3951 9.00947 47.1982 8.79924 46.9671 8.625C46.7398 8.45076 46.4785 8.32008 46.183 8.23295C45.8876 8.14205 45.5656 8.09659 45.2171 8.09659C44.5921 8.09659 44.0353 8.25379 43.5466 8.56818C43.058 8.88258 42.6735 9.3447 42.3932 9.95455C42.1167 10.5606 41.9785 11.2992 41.9785 12.1705C41.9785 13.0492 42.1167 13.7936 42.3932 14.4034C42.6698 15.0133 43.0542 15.4773 43.5466 15.7955C44.0391 16.1098 44.611 16.267 45.2626 16.267C45.8535 16.267 46.3648 16.1534 46.7966 15.9261C47.2323 15.6989 47.5675 15.3769 47.8023 14.9602C48.0372 14.5398 48.1546 14.0473 48.1546 13.483L48.6319 13.5568H45.4728V11.9091H50.1944V13.3068C50.1944 14.303 49.9823 15.1648 49.558 15.892C49.1338 16.6193 48.5504 17.1799 47.808 17.5739C47.0656 17.964 46.2133 18.1591 45.2512 18.1591C44.1792 18.1591 43.2379 17.9186 42.4273 17.4375C41.6205 16.9527 40.9898 16.2652 40.5353 15.375C40.0845 14.4811 39.8591 13.4205 39.8591 12.1932C39.8591 11.2538 39.9917 10.4148 40.2569 9.67614C40.5258 8.9375 40.9008 8.31061 41.3819 7.79545C41.8629 7.27651 42.4273 6.88258 43.0751 6.61364C43.7228 6.34091 44.4273 6.20455 45.1887 6.20455C45.8326 6.20455 46.433 6.29924 46.9898 6.48864C47.5466 6.67424 48.041 6.93939 48.4728 7.28409C48.9084 7.62879 49.2663 8.03788 49.5466 8.51136C49.827 8.98485 50.0107 9.50758 50.0978 10.0795H47.9501ZM53.1927 18V6.36364H60.6473V8.13068H55.3007V11.2898H60.1359V13.0568H55.3007V18H53.1927ZM63.5277 18V6.36364H71.0959V8.13068H65.6357V11.2898H70.7039V13.0568H65.6357V16.233H71.1414V18H63.5277ZM74.2065 18V6.36364H81.7747V8.13068H76.3144V11.2898H81.3826V13.0568H76.3144V16.233H81.8201V18H74.2065ZM88.8284 18H84.8852V6.36364H88.908C90.0633 6.36364 91.0557 6.59659 91.8852 7.0625C92.7186 7.52462 93.3587 8.18939 93.8057 9.05682C94.2527 9.92424 94.4761 10.9621 94.4761 12.1705C94.4761 13.3826 94.2508 14.4242 93.8 15.2955C93.353 16.1667 92.7072 16.8352 91.8625 17.3011C91.0216 17.767 90.0102 18 88.8284 18ZM86.9932 16.1761H88.7261C89.5367 16.1761 90.2129 16.0284 90.7545 15.733C91.2962 15.4337 91.7034 14.9886 91.9761 14.3977C92.2489 13.803 92.3852 13.0606 92.3852 12.1705C92.3852 11.2803 92.2489 10.5417 91.9761 9.95455C91.7034 9.36364 91.3 8.92235 90.7659 8.63068C90.2356 8.33523 89.5765 8.1875 88.7886 8.1875H86.9932V16.1761Z"/>
</svg>
