<svg xmlns="http://www.w3.org/2000/svg" fill="none" viewBox="0 0 96 48"><path d="M13 17.047v13.548a1.5 1.5 0 1 1-3 0V17.047a1.5 1.5 0 1 1 3 0Zm25.5-1.5a1.5 1.5 0 0 0-1.5 1.5v13.548a1.5 1.5 0 1 0 3 0V17.047a1.5 1.5 0 0 0-1.5-1.5Zm36 0a1.5 1.5 0 0 0-1.5 1.5v13.548a1.5 1.5 0 1 0 3 0V17.047a1.5 1.5 0 0 0-1.5-1.5Zm-54-7.862a1.5 1.5 0 0 0-1.5 1.5v29.272a1.5 1.5 0 1 0 3 0V9.185a1.5 1.5 0 0 0-1.5-1.5Zm9 0a1.5 1.5 0 0 0-1.5 1.5v29.272a1.5 1.5 0 1 0 3 0V9.185a1.5 1.5 0 0 0-1.5-1.5Zm18 0a1.5 1.5 0 0 0-1.5 1.5v29.272a1.5 1.5 0 1 0 3 0V9.185a1.5 1.5 0 0 0-1.5-1.5Zm18 0a1.5 1.5 0 0 0-1.5 1.5v29.272a1.5 1.5 0 1 0 3 0V9.185a1.5 1.5 0 0 0-1.5-1.5ZM56.5 1A1.5 1.5 0 0 0 55 2.5v42.641a1.5 1.5 0 1 0 3 0V2.501A1.5 1.5 0 0 0 56.5 1Zm27 16.188a1.5 1.5 0 0 0-1.5 1.5v10.266a1.5 1.5 0 1 0 3 0V18.688a1.5 1.5 0 0 0-1.5-1.5Zm9 1.496a1.5 1.5 0 0 0-1.5 1.5v7.273a1.5 1.5 0 1 0 3 0v-7.273a1.5 1.5 0 0 0-1.5-1.5Zm-90 0a1.5 1.5 0 0 0-1.5 1.5v7.273a1.5 1.5 0 0 0 3 0v-7.273a1.5 1.5 0 0 0-1.5-1.5Z"/></svg>
