<svg xmlns="http://www.w3.org/2000/svg" height="20" viewBox="0 -960 960 960" width="20"><path d="m649-431-61-61q4-48-31-85t-86-32l-61-61q17-6 34.5-9.5T480-683q76 0 129 53t53 129q0 20-3.5 38t-9.5 32Zm127 126-60-59q36-28 64-61t48-76q-49-100-142-157.5T480-716q-29 0-53.5 3.5T378-702l-66-66q41-17 82-24.5t86-7.5q143 0 257 74.5T908-529q2 5 3.5 12.5T913-501q0 8-1.5 15.5T908-473q-23 50-56.5 92.5T776-305ZM758-85 621-221q-35 11-70 16t-71 5q-143 0-257-75.5T52-473q-2-6-3.5-13T47-501q0-8 1-15.5t4-12.5q20-43 48.5-80.5T164-678l-80-81q-12-12-12.5-29.5T84-818q12-12 29.5-12t29.5 12l674 675q12 12 12 29t-12 29q-12 12-29.5 12T758-85ZM221-621q-28 26-51 55.5T131-501q49 100 142 158.5T480-284q17 0 35.5-1.5T551-291l-32-32q-9 2-19 3t-20 1q-76 0-129-53t-53-129q0-10 1.5-19t3.5-19l-82-82Zm325 87Zm-160 78Z"/></svg>