<svg xmlns="http://www.w3.org/2000/svg" height="20" viewBox="0 -960 960 960" width="20"><path d="M480.118-319Q556-319 609-372.118q53-53.117 53-129Q662-577 608.882-630q-53.117-53-129-53Q404-683 351-629.882q-53 53.117-53 129Q298-425 351.118-372q53.117 53 129 53ZM480-393q-45 0-76.5-31.5T372-501q0-45 31.5-76.5T480-609q45 0 76.5 31.5T588-501q0 45-31.5 76.5T480-393Zm0 193q-140 0-255-74T52-473q-2-5-3.5-12.5T47-501q0-8 1.5-15.5T52-529q58-125 173.312-198Q340.623-800 480-800q139.377 0 254.688 73Q850-654 908-529q2 5 3.5 12.5T913-501q0 8-1.5 15.5T908-473q-58 125-173 199t-255 74Zm0-301Zm-.183 217Q592-284 685.5-342.5 779-401 828-501q-49-100-142.589-157.5t-205.5-57.5Q368-716 274-658.5T131-501q49 100 142.817 158.5 93.817 58.5 206 58.5Z"/></svg>