<svg xmlns="http://www.w3.org/2000/svg" fill="none" viewBox="0 0 320 320">
  <path d="M207.12 274.47c14.3 0 26.09-11.6 25.33-25.88-.8-14.97-2.73-31.9-7.38-47.07a160.7 160.7 0 0 0-106.59-106.6c-15.17-4.64-32.1-6.57-47.07-7.37-14.28-.76-25.88 11.03-25.88 25.33 0 14.3 11.62 25.78 25.84 27.34 11.06 1.2 22.13 3.2 31.4 6.03a107.03 107.03 0 0 1 70.98 70.99c2.84 9.26 4.83 20.33 6.03 31.4 1.56 14.2 13.04 25.83 27.34 25.83Z"/>
  <path d="M294.61 274.47c14.3 0 25.96-11.6 25.37-25.88-1.02-24.32-3.97-57.73-12.48-82.18A249.97 249.97 0 0 0 153.6 12.5C129.15 3.99 95.73 1.04 71.4.02 57.13-.58 45.53 11.1 45.53 25.4s11.6 25.9 25.86 26.88c20.47 1.41 46.12 4.58 64.54 10.99a196.24 196.24 0 0 1 120.81 120.82c6.42 18.42 9.58 44.07 10.99 64.53.98 14.26 12.58 25.86 26.88 25.86Z"/>
  <path fill-rule="evenodd" d="M71.42 177.16a71.42 71.42 0 1 1 0 142.84 71.42 71.42 0 0 1 0-142.84Zm30.47 41.47c-2.8.05-7.08 1.54-27.7 10.11-7.22 3-21.66 9.22-43.3 18.65-3.52 1.4-5.36 2.77-5.53 4.1-.32 2.57 3.38 3.37 8.03 4.88 3.79 1.23 8.89 2.67 11.54 2.73 2.4.05 5.09-.94 8.05-2.97 20.22-13.65 30.66-20.55 31.32-20.7.46-.1 1.1-.24 1.54.15.43.38.39 1.11.34 1.31-.37 1.57-19.36 18.85-20.46 19.98-4.17 4.34-8.93 7-1.6 11.82 6.35 4.18 10.04 6.85 16.57 11.13 4.18 2.74 7.45 5.99 11.77 5.59 1.98-.18 4.03-2.05 5.07-7.61 2.46-13.15 7.3-41.64 8.41-53.38.1-1.02-.02-2.34-.12-2.92-.1-.57-.3-1.4-1.06-2a4.88 4.88 0 0 0-2.88-.87Z" clip-rule="evenodd"/>
</svg>
