<svg fill="none" xmlns="http://www.w3.org/2000/svg" viewBox="0 0 14 12">
  <path d="M.777778 10H13.2222c.4296 0 .7778.4477.7778 1 0 .5128-.3003.9355-.6871.9933L13.2222 12H.777778C.348223 12 0 11.5523 0 11c0-.5128.300254-.9355.687073-.9933L.777778 10H13.2222.777778Zm0-5H13.2222C13.6518 5 14 5.44772 14 6c0 .51284-.3003.93551-.6871.99327L13.2222 7H.777778C.348223 7 0 6.55228 0 6c0-.51284.300254-.93551.687073-.99327L.777778 5Zm0-5H13.2222C13.6518 0 14 .447715 14 1c0 .51284-.3003.93551-.6871.99327L13.2222 2H.777778C.348223 2 0 1.55228 0 1 0 .487164.300254.0644928.687073.0067277L.777778 0Z"/>
</svg>
