<svg xmlns="http://www.w3.org/2000/svg" viewBox="0 0 24 24">
  <path fill-rule="nonzero" d="M13.45 1c1.05 0 2 .8 2.18 1.83l.26 1.52c.51.24 1 .52 1.45.85l1.39-.51c1-.37 2.16.06 2.68.98l.95 1.68c.52.9.3 2.13-.5 2.8l-1.14.98a7.94 7.94 0 0 1 0 1.74l1.15.97c.8.68 1.01 1.9.5 2.81l-.96 1.68a2.24 2.24 0 0 1-2.68.98l-1.39-.51c-.45.33-.94.61-1.45.85l-.26 1.52A2.25 2.25 0 0 1 13.45 23h-1.9c-1.05 0-2-.8-2.18-1.83l-.26-1.52c-.51-.24-1-.52-1.45-.85l-1.39.51c-1 .37-2.16-.06-2.68-.98l-.95-1.68c-.52-.9-.3-2.13.5-2.8l1.14-.98a7.92 7.92 0 0 1 0-1.74l-1.15-.97a2.28 2.28 0 0 1-.5-2.81l.96-1.68a2.24 2.24 0 0 1 2.68-.98l1.39.51c.36-.26.75-.5 1.15-.7l.3-.15.26-1.52A2.25 2.25 0 0 1 11.55 1h1.9Zm0 2h-1.9c-.07 0-.2.1-.2.17l-.36 2.06a1 1 0 0 1-.64.77c-.69.26-1.32.63-1.87 1.1a1 1 0 0 1-1 .17l-1.9-.71c-.07-.03-.21.03-.25.1l-.95 1.67c-.05.08-.02.25.05.3l1.56 1.34a1 1 0 0 1 .34.93 6.53 6.53 0 0 0 0 2.2 1 1 0 0 1-.34.93l-1.56 1.33c-.07.06-.1.23-.05.3l.95 1.69c.04.07.18.12.24.09l1.92-.71a1 1 0 0 1 1 .17c.54.47 1.17.84 1.86 1.1a1 1 0 0 1 .64.77l.36 2.06c0 .07.12.17.2.17h1.9c.07 0 .2-.1.2-.17l.36-2.06a1 1 0 0 1 .64-.77 6.21 6.21 0 0 0 1.87-1.1 1 1 0 0 1 1-.17l1.9.71c.07.03.21-.03.25-.1l.95-1.67c.05-.08.02-.25-.05-.3l-1.56-1.34a1 1 0 0 1-.34-.93 6.46 6.46 0 0 0 0-2.2 1 1 0 0 1 .34-.93l1.56-1.33c.07-.06.1-.23.05-.3l-.95-1.69c-.04-.07-.17-.12-.24-.09l-1.92.71a1 1 0 0 1-1-.18A6.21 6.21 0 0 0 14.66 6a1 1 0 0 1-.64-.77l-.36-2.06c0-.07-.12-.17-.2-.17Zm-.95 7a2 2 0 1 1 0 4 2 2 0 0 1 0-4Z"/>
</svg>
