<svg width="282" height="282" viewBox="0 0 282 282" fill="none" xmlns="http://www.w3.org/2000/svg">
<path d="M30.2141 0C13.5255 0 0 13.5252 0 30.2134C0 46.9016 13.5255 60.4267 30.2141 60.4267C135.73 60.4267 221.572 146.267 221.572 251.78C221.572 268.468 235.097 281.993 251.786 281.993C268.474 281.993 282 268.468 282 251.78C282 112.949 169.053 0.00408083 30.2182 0.00408083L30.2141 0Z" fill="black"/>
<path d="M30.2141 100.716C13.5255 100.716 0 114.241 0 130.929C0 147.617 13.5255 161.143 30.2141 161.143C80.1982 161.143 120.86 201.811 120.86 251.787C120.86 268.475 134.386 282 151.075 282C167.763 282 181.289 268.475 181.289 251.787C181.289 168.485 113.518 100.72 30.2182 100.72L30.2141 100.716Z" fill="black"/>
<path fill-rule="evenodd" clip-rule="evenodd" d="M40 202C62.0914 202 80 219.909 80 242C80 264.091 62.0914 282 40 282C17.9086 282 0 264.091 0 242C0 219.909 17.9086 202 40 202ZM57.062 225.226C55.4979 225.254 53.0982 226.088 41.5496 230.89C37.5048 232.572 29.421 236.054 17.2982 241.335C15.3296 242.117 14.2984 242.883 14.2045 243.632C14.0243 245.069 16.0941 245.517 18.6983 246.363C20.8216 247.053 23.6777 247.86 25.1625 247.892C26.5094 247.921 28.0126 247.366 29.6723 246.227C40.999 238.582 46.846 234.719 47.2131 234.635C47.472 234.577 47.8309 234.503 48.0741 234.719C48.3172 234.935 48.2933 235.344 48.2676 235.454C48.0616 236.332 37.4214 246.008 36.8091 246.644C34.4692 249.073 31.8077 250.56 35.9134 253.265C39.4661 255.606 41.5338 257.099 45.1938 259.498C47.5327 261.031 49.3665 262.849 51.7814 262.627C52.8926 262.524 54.0405 261.48 54.6234 258.364C56.001 251.001 58.7089 235.047 59.3348 228.472C59.3896 227.896 59.3206 227.159 59.2652 226.835C59.2098 226.512 59.0941 226.051 58.6734 225.709C58.1751 225.305 57.406 225.22 57.062 225.226Z" fill="black"/>
</svg>
