<svg xmlns="http://www.w3.org/2000/svg" fill="none" viewBox="0 0 512 512"><g clip-path="url(#a)" filter="url(#b)"><path fill="#3A4E7E" fill-rule="evenodd" d="M335.643 177.6H177.602c-6.186 0-11.2 5.014-11.2 11.2 0 6.185 5.014 11.2 11.2 11.2h168c24.742 0 44.8 20.057 44.8 44.8v22.4c0 24.742-20.058 44.8-44.8 44.8h-168c-6.186 0-11.2 5.014-11.2 11.2 0 6.185 5.014 11.2 11.2 11.2h176.96c19.794 0 35.84 16.046 35.84 35.84a8.96 8.96 0 0 1-8.96 8.96h-215.04c-24.743 0-44.8-20.058-44.8-44.8V312c0-24.743 20.057-44.8 44.8-44.8h168c6.186 0 11.2-5.015 11.2-11.2 0-6.186-5.014-11.2-11.2-11.2h-168c-24.743 0-44.8-20.058-44.8-44.8v-22.4c0-24.743 20.057-44.8 44.8-44.8H335.96l13.08-13.081c4.374-4.374 11.465-4.374 15.839 0l27.719 27.719c4.373 4.374 4.373 11.465 0 15.839l-27.719 27.719c-4.374 4.373-11.465 4.373-15.839 0L335.643 177.6Zm12.297-40.381c-.563-.253-1.139.326-.87.874l7.679 15.744a.659.659 0 0 0 .595.369h27.395c.712 0 .922-.954.275-1.244l-35.074-15.743Zm7.404 19.29a.66.66 0 0 0-.595.369l-7.679 15.744c-.269.549.307 1.127.87.875l35.074-15.744c.647-.29.437-1.244-.275-1.244h-27.395Z" clip-rule="evenodd"/></g><defs><clipPath id="a"><path fill="#fff" d="M116 116h280v280H116z"/></clipPath><filter id="b" width="290.273" height="278.761" x="113.602" y="112.439" color-interpolation-filters="sRGB" filterUnits="userSpaceOnUse"><feFlood flood-opacity="0" result="BackgroundImageFix"/><feColorMatrix in="SourceAlpha" result="hardAlpha" values="0 0 0 0 0 0 0 0 0 0 0 0 0 0 0 0 0 0 127 0"/><feOffset dy="4"/><feGaussianBlur stdDeviation="4"/><feComposite in2="hardAlpha" operator="out"/><feColorMatrix values="0 0 0 0 0 0 0 0 0 0 0 0 0 0 0 0 0 0 0.25 0"/><feBlend in2="BackgroundImageFix" result="effect1_dropShadow_1827_3"/><feBlend in="SourceGraphic" in2="effect1_dropShadow_1827_3" result="shape"/></filter></defs></svg>
