<svg width="280" height="280" viewBox="0 0 280 280" fill="none" xmlns="http://www.w3.org/2000/svg">
<path d="M251.196 0.00883874C247.009 0.114779 243.042 1.18649 239.488 2.96282L111.992 68.7204V211.229L239.413 276.936C257.672 286.347 280 272.452 280 251.996V27.9811C280 12.3093 266.873 -0.46508 251.191 0.0129962L251.196 0.00883874ZM27.9904 74.7035C12.631 74.7035 0 87.3126 0 102.669V177.307C0 192.663 12.631 205.273 27.9904 205.273H93.3251V74.7035H27.9904ZM55.9808 223.941V251.998C55.9808 267.349 68.632 280 83.9864 280H102.66C118.014 280 130.668 267.349 130.668 251.998V241.862L95.8932 223.941H55.9808Z" fill="url(#paint0_linear_3_21)"/>
<defs>
<linearGradient id="paint0_linear_3_21" x1="-8.40291e-06" y1="279.947" x2="279.947" y2="-0.0529819" gradientUnits="userSpaceOnUse">
<stop offset="0.374256" stop-color="#93F5EC"/>
<stop offset="1" stop-color="#A77BF3"/>
</linearGradient>
</defs>
</svg>
