<svg xmlns="http://www.w3.org/2000/svg" viewBox="0 -960 960 960"><path d="M478-773.334q-68.333 0-128 31.334-59.667 31.333-102.667 83.999h73.334q14.333 0 23.833 9.5 9.5 9.5 9.5 23.834 0 14.333-9.5 23.833-9.5 9.5-23.833 9.5H168q-14.333 0-23.833-9.5-9.5-9.5-9.5-23.833v-152q0-14.333 9.5-23.833 9.5-9.5 23.833-9.5 14.333 0 23.833 9.5 9.5 9.5 9.5 23.833V-708Q253-770 325.167-805 397.333-840 478-840q150.667 0 256.333 104.333Q840-631.333 840-481.333v6.666h-66.666v-8.666q0-121.667-86.5-205.834Q600.333-773.334 478-773.334ZM479-120q-136.334 0-236.334-88.667t-118-221.001q-2.333-13.667 6.667-24.333 9-10.667 23.333-11.333Q168-466.001 178-457.668q9.999 8.334 12.999 22.334 14.334 103 90.667 173.001Q358-192.333 463.001-188h8l38.666 66q-7.333 1.333-15 1.667Q487-120 479-120Zm72.334-244.667-94.001-92.666q-5.333-5.334-7.666-11.5-2.333-6.167-2.333-12.834v-167q0-14.333 9.499-23.833 9.5-9.5 23.834-9.5 14.333 0 23.833 9.5 9.5 9.5 9.5 23.833v154l72.667 71.334-35.333 58.666Zm204.333 358q-11.333 0-19.5-7.333t-10.5-18.667l-6.667-38q-16-5-30.167-12.5-14.166-7.5-27.166-19.5l-35.001 8.333q-9.666 2.667-18.499-1-8.834-3.666-13.834-12l-6.666-11.333Q582-128 583.667-138q1.667-10 9.333-17l29.334-27q-2.667-12.334-2.667-25.334t2.667-25.333l-29.334-27q-7.666-6.333-9.333-16.5-1.667-10.166 4-18.833l7-13q5-8.333 13.333-11.667 8.333-3.333 18-.666L661.667-312q13-12 27.166-19.5Q703-339 719-344l6.667-38.334q2.333-11.333 10.5-18.5 8.167-7.166 19.5-7.166h10.666q11.334 0 19.5 7.333 8.167 7.333 10.5 18.667L803-344q16 5 30.333 12.833 14.334 7.834 27 19.834l34.334-8.334q10-3 19 .667t14 12.333l6.666 11.334Q940-286 938.333-276q-1.666 10-9.333 17l-29.334 27q2.667 12.333 2.667 25 0 12.666-2.667 25L929-155q7.667 6.333 9.333 16.5 1.667 10.166-4 18.833l-7 13q-5 8.333-13.333 11.666-8.333 3.334-18 .667l-35.667-8.333q-13 12-27.166 19.5Q819-75.667 803-70.667l-6.667 38.334Q794-21 785.833-13.833q-8.166 7.166-19.5 7.166h-10.666ZM761-127.334q35 0 57.5-22.5 22.5-22.499 22.5-57.5 0-35-22.5-57.5t-57.5-22.5q-35 0-57.5 22.5t-22.5 57.5q0 35.001 22.5 57.5 22.5 22.5 57.5 22.5Z"/></svg>
