<svg width="512" height="512" viewBox="0 0 512 512" fill="none" xmlns="http://www.w3.org/2000/svg">
<rect width="512" height="512" fill="#3A4E7E"/>
<path fill-rule="evenodd" clip-rule="evenodd" d="M164.486 263.028C211.147 263.028 248.972 300.853 248.972 347.514C248.972 394.174 211.147 432 164.486 432C117.826 432 80 394.174 80 347.514C80 300.853 117.826 263.028 164.486 263.028ZM200.524 312.084C197.22 312.143 192.152 313.905 167.759 324.049C159.216 327.601 142.142 334.955 116.536 346.108C112.378 347.761 110.2 349.379 110.002 350.96C109.621 353.996 113.993 354.941 119.494 356.729C123.978 358.187 130.011 359.892 133.147 359.959C135.992 360.021 139.167 358.848 142.672 356.442C166.596 340.295 178.946 332.134 179.721 331.958C180.268 331.834 181.026 331.678 181.54 332.135C182.053 332.591 182.003 333.455 181.949 333.687C181.514 335.541 159.04 355.979 157.747 357.322C152.804 362.454 147.183 365.594 155.855 371.308C163.359 376.252 167.726 379.406 175.456 384.472C180.397 387.71 184.27 391.55 189.37 391.08C191.718 390.864 194.142 388.658 195.373 382.077C198.283 366.525 204.002 332.827 205.324 318.941C205.44 317.724 205.294 316.167 205.177 315.484C205.06 314.8 204.816 313.827 203.927 313.106C202.875 312.252 201.25 312.072 200.524 312.084Z" fill="white"/>
<path d="M339.091 347.514C341.165 347.514 342.85 345.832 342.807 343.759C342.34 321.616 337.753 299.741 329.269 279.258C320.306 257.619 307.168 237.957 290.606 221.394C274.043 204.832 254.381 191.694 232.742 182.731C212.259 174.247 190.384 169.66 168.241 169.193C166.168 169.15 164.486 170.835 164.486 172.909V221.047C164.486 223.121 166.168 224.796 168.241 224.86C183.075 225.314 197.715 228.456 211.446 234.143C226.334 240.31 239.862 249.349 251.256 260.744C262.651 272.138 271.69 285.666 277.857 300.554C283.544 314.285 286.686 328.925 287.14 343.759C287.204 345.832 288.879 347.514 290.953 347.514H339.091Z" fill="white"/>
<path d="M428.271 347.514C430.345 347.514 432.029 345.832 432 343.759C431.524 309.903 424.627 276.433 411.661 245.131C398.216 212.671 378.509 183.178 353.665 158.335C328.822 133.491 299.329 113.784 266.869 100.339C235.567 87.3733 202.097 80.4756 168.241 80.0004C166.168 79.9713 164.486 81.6552 164.486 83.729L164.486 133.887C164.486 135.961 166.168 137.639 168.241 137.676C194.523 138.146 220.495 143.55 244.801 153.618C270.263 164.165 293.399 179.624 312.888 199.112C332.376 218.601 347.835 241.737 358.382 267.199C368.45 291.505 373.854 317.477 374.324 343.759C374.361 345.832 376.039 347.514 378.113 347.514H428.271Z" fill="white"/>
</svg>
