<svg xmlns="http://www.w3.org/2000/svg" fill="none" viewBox="0 0 512 512">
  <path fill-rule="evenodd" d="M183.205 261.59c37.116 0 67.205 30.089 67.205 67.205S220.321 396 183.205 396 116 365.911 116 328.795s30.089-67.205 67.205-67.205Zm28.666 39.022c-2.628.047-6.659 1.449-26.063 9.518-6.795 2.826-20.377 8.675-40.745 17.547-3.307 1.315-5.04 2.602-5.198 3.859-.303 2.415 3.175 3.167 7.551 4.589 3.567 1.16 8.366 2.516 10.86 2.57 2.263.049 4.789-.884 7.577-2.798 19.03-12.844 28.854-19.336 29.471-19.476.435-.098 1.038-.222 1.446.141.409.363.369 1.05.325 1.235-.346 1.474-18.222 17.732-19.251 18.8-3.931 4.082-8.403 6.58-1.505 11.125 5.969 3.933 9.443 6.442 15.592 10.472 3.93 2.575 7.011 5.63 11.068 5.256 1.867-.171 3.796-1.927 4.775-7.161 2.315-12.372 6.864-39.177 7.916-50.222.092-.968-.024-2.207-.117-2.75-.093-.544-.288-1.319-.994-1.892-.838-.679-2.13-.822-2.708-.813Z" clip-rule="evenodd"/>
  <path d="M322.095 328.795c1.65 0 2.99-1.337 2.956-2.987a141.875 141.875 0 0 0-87.552-128.09 141.875 141.875 0 0 0-51.307-10.769c-1.65-.034-2.987 1.306-2.987 2.956v38.292c0 1.649 1.338 2.982 2.986 3.032a97.607 97.607 0 0 1 66.036 28.544 97.603 97.603 0 0 1 28.544 66.036c.05 1.648 1.383 2.986 3.032 2.986h38.292Z"/>
  <path d="M393.034 328.795c1.649 0 2.989-1.337 2.966-2.987A212.816 212.816 0 0 0 186.192 116c-1.65-.023-2.987 1.317-2.987 2.966v39.899c0 1.649 1.337 2.984 2.987 3.013a166.95 166.95 0 0 1 163.93 163.93c.029 1.649 1.364 2.987 3.013 2.987h39.899Z"/>
</svg>
