<svg xmlns="http://www.w3.org/2000/svg" fill="none" viewBox="0 0 512 512">
  <path fill-rule="evenodd" d="M164.486 263.028c46.661 0 84.486 37.825 84.486 84.486 0 46.66-37.825 84.486-84.486 84.486C117.826 432 80 394.174 80 347.514c0-46.661 37.826-84.486 84.486-84.486Zm36.038 49.056c-3.304.059-8.372 1.821-32.765 11.965-8.543 3.552-25.617 10.906-51.223 22.059-4.158 1.653-6.336 3.271-6.534 4.852-.381 3.036 3.991 3.981 9.492 5.769 4.484 1.458 10.517 3.163 13.653 3.23 2.845.062 6.02-1.111 9.525-3.517 23.924-16.147 36.274-24.308 37.049-24.484.547-.124 1.305-.28 1.819.177.513.456.463 1.32.409 1.552-.435 1.854-22.909 22.292-24.202 23.635-4.943 5.132-10.564 8.272-1.892 13.986 7.504 4.944 11.871 8.098 19.601 13.164 4.941 3.238 8.814 7.078 13.914 6.608 2.348-.216 4.772-2.422 6.003-9.003 2.91-15.552 8.629-49.25 9.951-63.136.116-1.217-.03-2.774-.147-3.457-.117-.684-.361-1.657-1.25-2.378-1.052-.854-2.677-1.034-3.403-1.022Z" clip-rule="evenodd"/>
  <path d="M339.091 347.514c2.074 0 3.759-1.682 3.716-3.755a178.37 178.37 0 0 0-110.065-161.028 178.386 178.386 0 0 0-64.501-13.538c-2.073-.043-3.755 1.642-3.755 3.716v48.138c0 2.074 1.682 3.749 3.755 3.813a122.702 122.702 0 0 1 83.015 35.884 122.702 122.702 0 0 1 35.884 83.015c.064 2.073 1.739 3.755 3.813 3.755h48.138Z"/>
  <path d="M428.271 347.514c2.074 0 3.758-1.682 3.729-3.755a267.551 267.551 0 0 0-78.335-185.424A267.519 267.519 0 0 0 168.241 80c-2.073-.029-3.755 1.655-3.755 3.729v50.158c0 2.074 1.682 3.752 3.755 3.789a209.866 209.866 0 0 1 190.141 129.523 209.866 209.866 0 0 1 15.942 76.56c.037 2.073 1.715 3.755 3.789 3.755h50.158Z"/>
</svg>
